<!-- Generated by IcoMoon.io -->
<svg version="1.1" xmlns="http://www.w3.org/2000/svg" width="768" height="768" viewBox="0 0 768 768">
<title></title>
<g id="icomoon-ignore">
</g>
<path fill="#000" d="M712.384 334.976c-108.48-91.328-305.472-261.472-307.424-263.2l-20.96-18.016-20.864 18.016c-1.984 1.696-199.072 171.776-309.12 263.936-14.016 12.608-22.016 30.24-22.016 48.288 0 35.328 28.672 64 64 64h32v192c0 35.328 28.672 64 64 64h384c35.328 0 64-28.672 64-64v-192h32c35.328 0 64-28.672 64-64 0-19.136-8.8-37.152-23.616-49.024zM448 640h-128v-160h128v160zM576 384l0.064 256c-0.064 0-96.064 0-96.064 0v-192h-192v192h-96v-256h-96.032c88.48-73.984 234.080-199.264 288.032-245.76 53.952 46.496 199.488 171.744 288 245.792 0 0-96 0-96-0.032z"></path>
</svg>
